PathFileType	4	(X/Y/Z)	E:\Qualisys_Data\Carbon_Farble_Plate\Data\Amateur_Runner\S1\T2\S1T2V11_c3d.trc
DataRate	CameraRate	NumFrames	NumMarkers	Units	OrigDataRate	OrigDataStartFrame	OrigNumFrames
200.000000	200.000000	4	39	mm	200.000000	0	312
Frame#	Time	LSHO			RSHO			LICST			RICST			LASIS			LHEEL			RASIS			LTROC			RTROC			SACR			LTH1			LSK4			LTH2			LTH3			RHM5			LSK2			LTH4			RTH1			LTOE			RTH2			RTH3			RTH4			LLEP			RLEP			LSK1			LSK3			RSK1			LHM5			RSK2			LFT1			RSK3			RSK4			LLME			RLME			RTOE			RHEEL			RFT1			RFT2			LFT2			
		X1	Y1	Z1	X2	Y2	Z2	X3	Y3	Z3	X4	Y4	Z4	X5	Y5	Z5	X6	Y6	Z6	X7	Y7	Z7	X8	Y8	Z8	X9	Y9	Z9	X10	Y10	Z10	X11	Y11	Z11	X12	Y12	Z12	X13	Y13	Z13	X14	Y14	Z14	X15	Y15	Z15	X16	Y16	Z16	X17	Y17	Z17	X18	Y18	Z18	X19	Y19	Z19	X20	Y20	Z20	X21	Y21	Z21	X22	Y22	Z22	X23	Y23	Z23	X24	Y24	Z24	X25	Y25	Z25	X26	Y26	Z26	X27	Y27	Z27	X28	Y28	Z28	X29	Y29	Z29	X30	Y30	Z30	X31	Y31	Z31	X32	Y32	Z32	X33	Y33	Z33	X34	Y34	Z34	X35	Y35	Z35	X36	Y36	Z36	X37	Y37	Z37	X38	Y38	Z38	X39	Y39	Z39	

1	0	-2185.849853515625	1559.932250976562	-538.0736694335938	-2253.9150390625	1544.28466796875	-224.2744445800781	-2231.102783203125	1081.167358398438	-531.6771850585938	-2239.745361328125	1094.973266601562	-236.2304382324219	-2189.6123046875	1037.028442382812	-506.4139709472656	-2789.660888671875	351.0005187988281	-453.2320251464844	-2202.442138671875	1046.767822265625	-244.1645660400391	-2317.978759765625	975.0001831054688	-551.1885986328125	-2303.89599609375	956.7517700195312	-214.2288513183594	-2353.282470703125	1110.34765625	-382.7643127441406	-2246.1611328125	794.0540161132812	-523.4913330078125	-2675.993408203125	432.4721374511719	-484.0500793457031	-2320.74755859375	815.2579345703125	-553.893798828125	-2280.5419921875	696.6488647460938	-509.3855895996094	-1873.833251953125	159.6710815429688	-224.6139526367188	-2595.5078125	488.78076171875	-518.3084716796875	-2358.86474609375	723.1842041015625	-531.8402709960938	-2142.304443359375	859.8530883789062	-229.4521026611328	-2689.4609375	117.0922546386719	-438.4344482421875	-2214.2685546875	831.1640014648438	-204.0216979980469	-2106.861572265625	764.6256713867188	-234.6683044433594	-2181.43994140625	737.1072998046875	-218.7140808105469	-2392.018798828125	568.6320190429688	-501.072021484375	-2099.588134765625	590.7854614257812	-255.1457061767578	-2546.9619140625	419.9476013183594	-510.3433532714844	-2633.587158203125	366.6855773925781	-507.4885559082031	-2059.16357421875	408.4463500976562	-226.7498016357422	-2747.8994140625	156.5409851074219	-507.52099609375	-2137.6357421875	388.682373046875	-246.8681488037109	-2811.291015625	331.7931213378906	-426.431640625	-2031.628051757812	312.6702575683594	-238.1796875	-2105.581787109375	294.3952331542969	-267.0501098632812	-2743.59619140625	315.2120666503906	-502.3365783691406	-2019.905639648438	172.3732604980469	-241.4029235839844	-1825.742065429688	208.2224884033203	-295.5908508300781	-2061.619140625	108.6149444580078	-286.5597839355469	-2036.068969726562	89.26894378662109	-318.7692565917969	-2042.8125	83.60281372070312	-262.6552429199219	-2816.434814453125	329.7291259765625	-479.7894287109375
2	0.005	-2169.297119140625	1559.247314453125	-536.5042114257812	-2237.527099609375	1542.2783203125	-222.7088317871094	-2214.4443359375	1080.510009765625	-531.849853515625	-2223.313720703125	1093.529052734375	-235.9438323974609	-2173.070556640625	1036.666381835938	-506.3489074707031	-2774.760498046875	357.600830078125	-452.8072814941406	-2185.283447265625	1045.796264648438	-243.3011779785156	-2300.633544921875	974.0391235351562	-551.233642578125	-2287.6416015625	954.893798828125	-213.9832763671875	-2336.9033203125	1109.240112304688	-382.3710327148438	-2227.06494140625	793.1693115234375	-521.4658813476562	-2658.792236328125	436.4394226074219	-483.5464782714844	-2301.760986328125	813.6428833007812	-553.1564331054688	-2261.248291015625	695.5659790039062	-507.9090576171875	-1854.833374023438	161.0464172363281	-223.9429016113281	-2577.44873046875	491.0874938964844	-518.3043212890625	-2338.727783203125	720.8214111328125	-531.5051879882812	-2127.969482421875	855.2532958984375	-230.0990600585938	-2677.71728515625	122.4425964355469	-437.7820129394531	-2199.41796875	828.2456665039062	-202.5098724365234	-2092.810546875	759.318115234375	-233.9387817382812	-2169.62158203125	732.97802734375	-215.5138702392578	-2371.948974609375	566.4495239257812	-501.1444396972656	-2084.986328125	587.431640625	-255.0220031738281	-2530.58447265625	420.8025817871094	-509.5400390625	-2617.7998046875	369.3184814453125	-507.1517639160156	-2042.4716796875	407.2750244140625	-226.8047790527344	-2735.70263671875	163.0631103515625	-507.2351989746094	-2120.246337890625	386.64697265625	-247.0834808349609	-2797.067138671875	339.1118469238281	-426.2339172363281	-2013.02001953125	311.4676513671875	-237.9908294677734	-2087.287353515625	292.675537109375	-266.3170471191406	-2729.333984375	320.968994140625	-502.0418395996094	-2000.40576171875	171.6796112060547	-240.5160675048828	-1807.0126953125	208.8960113525391	-295.6080627441406	-2040.743286132812	107.517707824707	-285.9021301269531	-2015.804809570312	87.8404312133789	-317.614501953125	-2023.06884765625	82.94588470458984	-262.3761596679688	-2801.778076171875	336.51611328125	-479.509033203125
3	0.01	-2152.953125	1557.982421875	-535.1863403320312	-2220.614990234375	1540.244995117188	-221.3006744384766	-2198.119384765625	1079.959594726562	-531.3012084960938	-2206.101318359375	1092.134887695312	-235.9359130859375	-2156.3134765625	1036.280151367188	-506.1569519042969	-2759.089599609375	363.6978454589844	-452.7083129882812	-2168.135498046875	1044.4638671875	-243.5404815673828	-2283.075927734375	972.0474853515624	-551.283447265625	-2271.20654296875	952.7393188476562	-214.1998748779297	-2320.1474609375	1107.1328125	-381.8971557617188	-2208.05224609375	792.2071533203125	-519.52734375	-2641.91162109375	441.2388000488281	-483.2633361816406	-2281.94482421875	810.9510498046875	-552.3264770507812	-2241.116943359375	694.1932983398438	-506.4685363769531	-1837.096435546875	161.2185668945312	-223.7399597167969	-2558.609375	493.2973022460938	-517.8831787109375	-2318.47314453125	718.17236328125	-531.1185913085938	-2113.350830078125	850.8190307617188	-229.6758270263672	-2665.839599609375	127.6266708374023	-436.6630249023438	-2184.39892578125	825.1582641601562	-201.4625396728516	-2080.2412109375	754.4867553710938	-233.6063690185547	-2156.113525390625	729.57763671875	-213.1345367431641	-2351.622314453125	563.7877197265625	-500.9375	-2070.3828125	585.66015625	-254.4025115966797	-2514.190185546875	422.8009643554688	-508.9683837890625	-2602.306884765625	373.00537109375	-506.2794494628906	-2025.302734375	406.279052734375	-227.6130065917969	-2723.23046875	168.6433410644531	-506.0960998535156	-2102.666748046875	384.5869750976562	-245.4028930664062	-2781.79833984375	346.2102966308594	-425.5831298828125	-1995.93212890625	310.5318298339844	-238.1951446533203	-2069.473388671875	290.4634704589844	-265.4510498046875	-2714.439208984375	326.6457214355469	-501.61572265625	-1982.205810546875	170.8659820556641	-241.0688018798828	-1789.150268554688	208.2473907470703	-295.4259948730469	-2024.151611328125	105.650764465332	-286.5287170410156	-1997.058471679688	85.87773132324219	-316.8371276855469	-2005.538696289062	81.60546112060547	-262.0935974121094	-2786.537353515625	343.670166015625	-479.197509765625
4	0.015	-2136.3974609375	1557.039916992188	-533.8092041015625	-2203.70947265625	1537.7734375	-219.4529418945312	-2181.500732421875	1078.42138671875	-531.4141845703125	-2189.806640625	1090.296752929688	-235.2302703857422	-2139.344970703125	1035.36865234375	-505.7767333984375	-2743.1015625	370.2409973144531	-451.9131164550781	-2151.6240234375	1042.731567382812	-242.9173889160156	-2265.223876953125	970.2786254882812	-551.326171875	-2253.85986328125	950.9963989257812	-213.8133544921875	-2304.383056640625	1105.228759765625	-381.7380981445312	-2187.947265625	790.45703125	-518.1378173828125	-2623.61962890625	444.9985656738281	-483.1893615722656	-2262.411376953125	808.6865234375	-551.6264038085938	-2220.868408203125	691.9387817382812	-505.1896362304688	-1820.420654296875	160.5107879638672	-223.4721069335938	-2539.270751953125	495.031982421875	-517.4606323242188	-2298.3125	715.6942138671875	-531.0090942382812	-2099.2763671875	846.6331176757812	-230.023193359375	-2653.702392578125	133.0940856933594	-436.2794494628906	-2169.447509765625	822.3019409179688	-199.9560852050781	-2066.664794921875	749.7396240234375	-232.7791595458984	-2142.3212890625	726.06640625	-210.3919982910156	-2330.55712890625	561.2449340820312	-500.0421447753906	-2054.597412109375	583.7451782226562	-253.6095733642578	-2496.42431640625	423.2990417480469	-508.3641052246094	-2586.72998046875	376.7366943359375	-505.8508605957031	-2008.143432617188	404.633544921875	-227.43505859375	-2710.3984375	174.5344390869141	-505.1789855957031	-2085.808837890625	382.5623168945312	-244.4994049072266	-2766.0048828125	353.7513427734375	-425.267333984375	-1977.60498046875	308.5469665527344	-238.7325286865234	-2053.193359375	288.7461547851562	-263.0643920898438	-2699.235107421875	332.1398315429688	-501.4836730957031	-1964.9775390625	169.3126831054688	-240.6359252929688	-1772.22607421875	206.2784881591797	-295.8072814941406	-2007.43408203125	104.5028076171875	-286.6227111816406	-1979.92431640625	83.8626480102539	-316.2431030273438	-1989.247436523438	79.64197540283203	-261.4117431640625	-2770.732666015625	350.5295104980469	-478.2803649902344
